<svg aria-hidden="true" style="position: absolute; width: 0; height: 0; overflow: hidden;" version="1.1" xmlns="http://www.w3.org/2000/svg" xmlns:xlink="http://www.w3.org/1999/xlink">
<defs>
<symbol id="icon-facebook" viewBox="0 0 24 24">
<title>facebook</title>
<path d="M18 7c0.6 0 1-0.4 1-1v-4c0-0.6-0.4-1-1-1h-3c-3.3 0-6 2.7-6 6v2h-2c-0.6 0-1 0.4-1 1v4c0 0.6 0.4 1 1 1h2v7c0 0.6 0.4 1 1 1h4c0.6 0 1-0.4 1-1v-7h2c0.5 0 0.9-0.3 1-0.8l1-4c0.1-0.3 0-0.6-0.2-0.9s-0.5-0.3-0.8-0.3h-3v-2h3zM14 11h2.7l-0.5 2h-2.2c-0.6 0-1 0.4-1 1v7h-2v-7c0-0.6-0.4-1-1-1h-2v-2h2c0.6 0 1-0.4 1-1v-3c0-2.2 1.8-4 4-4h2v2h-2c-1.1 0-2 0.9-2 2v3c0 0.6 0.4 1 1 1z"></path>
</symbol>
<symbol id="icon-instagram" viewBox="0 0 24 24">
<title>instagram</title>
<path d="M17 1h-10c-3.3 0-6 2.7-6 6v10c0 3.3 2.7 6 6 6h10c3.3 0 6-2.7 6-6v-10c0-3.3-2.7-6-6-6zM21 17c0 2.2-1.8 4-4 4h-10c-2.2 0-4-1.8-4-4v-10c0-2.2 1.8-4 4-4h10c2.2 0 4 1.8 4 4v10z"></path>
<path d="M12.8 7c-0.5-0.1-1-0.1-1.5 0-2.7 0.4-4.6 3-4.2 5.7 0.2 1.3 0.9 2.5 2 3.3 0.9 0.6 1.9 1 3 1 0.2 0 0.5 0 0.7-0.1 1.3-0.2 2.5-0.9 3.3-2s1.1-2.4 0.9-3.7c-0.3-2.2-2-3.9-4.2-4.2zM14.5 13.7c-0.5 0.6-1.2 1.1-2 1.2-1.6 0.2-3.2-0.9-3.4-2.5-0.3-1.6 0.9-3.2 2.5-3.4 0.1 0 0.3 0 0.4 0s0.3 0 0.4 0c1.3 0.2 2.3 1.2 2.5 2.5 0.2 0.8 0 1.6-0.4 2.2z"></path>
<path d="M16.8 5.8c-0.2 0.2-0.3 0.4-0.3 0.7s0.1 0.5 0.3 0.7c0.2 0.2 0.5 0.3 0.7 0.3 0.3 0 0.5-0.1 0.7-0.3s0.3-0.5 0.3-0.7c0-0.3-0.1-0.5-0.3-0.7-0.4-0.4-1-0.4-1.4 0z"></path>
</symbol>
<symbol id="icon-twitter" viewBox="0 0 24 24">
<title>twitter</title>
<path d="M23.6 2.2c-0.3-0.2-0.8-0.2-1.1 0-0.7 0.5-1.5 0.9-2.3 1.2-2-1.8-5.1-1.9-7.2-0.1-1.3 1.1-2 2.6-2 4.2-2.9-0.2-5.5-1.7-7.2-4.1-0.2-0.3-0.5-0.4-0.9-0.4s-0.7 0.3-0.8 0.6c-0.1 0.1-1.1 2.5-1 5.4 0.1 2.5 1.1 5.7 4.8 8-1.5 0.7-3.2 1-4.9 1-0.4 0-0.9 0.3-1 0.7s0.1 0.9 0.5 1.1c2.5 1.4 5.2 2.1 7.7 2.1s4.9-0.6 7.1-1.9c4.3-2.4 6.7-7 6.7-12.5 0-0.2 0-0.3 0-0.5 1-1.1 1.7-2.4 2-3.8 0.1-0.4-0.1-0.8-0.4-1zM20.2 6c-0.2 0.2-0.3 0.6-0.3 0.9 0.1 0.2 0.1 0.4 0.1 0.6 0 4.8-2.1 8.7-5.7 10.8-2.8 1.6-6.1 2-9.4 1.2 1.3-0.4 2.5-0.9 3.6-1.7 0.4-0.2 0.5-0.5 0.5-0.9s-0.3-0.7-0.6-0.8c-5.8-2.6-5.6-7.5-5-10 2.2 2.2 5.3 3.5 8.6 3.4 0.5 0 1-0.5 1-1v-1c0-1 0.4-2 1.2-2.7 1.4-1.3 3.7-1.1 4.9 0.3 0.3 0.3 0.7 0.4 1 0.3 0.2-0.1 0.5-0.1 0.7-0.2-0.2 0.3-0.4 0.5-0.6 0.8z"></path>
</symbol>
<symbol id="icon-logo" viewBox="0 0 57 32">
<title>logo</title>
<path d="M3.126 6.832c0.741 0 1.294-0.525 1.294-1.32 0-0.808-0.553-1.334-1.294-1.334-0.755 0-1.307 0.526-1.307 1.334 0 0.795 0.552 1.32 1.307 1.32zM3.045 2.776c0.525 0 1.011 0.121 1.375 0.391v-0.31h1.482v2.655c0 0.781-0.309 1.482-0.903 1.967 0.808 0.566 1.28 1.455 1.28 2.453 0 1.886-1.387 3.112-3.153 3.112-1.657 0-2.857-1.051-3.126-2.574h1.536c0.202 0.661 0.687 1.173 1.59 1.173 0.997 0 1.644-0.701 1.644-1.711s-0.647-1.698-1.644-1.698c-0.647 0-1.213 0.377-1.469 0.89l-1.078-1.065c0.162-0.216 0.363-0.418 0.66-0.579-0.58-0.499-0.903-1.186-0.903-1.967 0-1.523 1.118-2.736 2.709-2.736z"></path>
<path d="M7.080 2.857h1.482v0.701c0.323-0.431 0.795-0.781 1.738-0.781v1.428h-0.135c-0.944 0-1.603 0.674-1.603 1.671v3.719h-1.482v-6.737z"></path>
<path d="M11.955 5.417h3.584c-0.216-0.701-0.943-1.267-1.792-1.267s-1.576 0.565-1.792 1.267zM11.888 6.737c0.162 0.849 0.93 1.536 1.9 1.536 0.687 0 1.24-0.216 1.523-0.647h1.764c-0.458 1.226-1.764 2.048-3.288 2.048-1.954 0-3.463-1.536-3.463-3.449s1.508-3.45 3.422-3.45c1.914 0 3.422 1.537 3.422 3.45 0 0.175-0.013 0.35-0.040 0.512h-5.242z"></path>
<path d="M19.186 5.417h3.584c-0.216-0.701-0.943-1.267-1.792-1.267s-1.576 0.565-1.792 1.267zM19.119 6.737c0.162 0.849 0.93 1.536 1.9 1.536 0.687 0 1.24-0.216 1.523-0.647h1.765c-0.458 1.226-1.764 2.048-3.288 2.048-1.954 0-3.463-1.536-3.463-3.449s1.509-3.45 3.422-3.45c1.914 0 3.422 1.537 3.422 3.45 0 0.175-0.013 0.35-0.040 0.512h-5.242z"></path>
<path d="M25.221 2.857h1.482v0.768c0.309-0.404 0.916-0.849 1.846-0.849 1.671 0 2.587 0.984 2.587 2.776v4.043h-1.482v-3.719c0-1.186-0.499-1.698-1.469-1.698s-1.482 0.701-1.482 1.698v3.719h-1.482v-6.737z"></path>
<path d="M35.448 2.857l0.445 1.401 0.445-1.401h1.456l-1.172 3.112 0.579 1.725 1.779-4.838h1.509l-2.654 6.737h-1.347l-0.593-1.765-0.593 1.765h-1.347l-2.655-6.737h1.51l1.779 4.838 0.579-1.725-1.172-3.112z"></path>
<path d="M41.034 9.594h1.482v-6.737h-1.482v6.737zM41.774 0.081c0.553 0 0.998 0.445 0.998 1.010 0 0.566-0.445 1.011-0.998 1.011-0.552 0-0.996-0.445-0.996-1.011 0-0.565 0.445-1.010 0.996-1.010z"></path>
<path d="M46.731 8.274c1.145 0 1.954-0.835 1.954-2.048h1.482c0 1.967-1.482 3.449-3.436 3.449-1.981 0-3.45-1.469-3.45-3.449s1.469-3.45 3.45-3.45c1.051 0 1.846 0.391 2.466 1.024l-1.092 0.984c-0.337-0.364-0.781-0.606-1.374-0.606-1.159 0-1.941 0.835-1.941 2.049s0.782 2.048 1.941 2.048z"></path>
<path d="M50.864 0.162l1.482-0.162v3.624c0.404-0.485 1.051-0.849 1.927-0.849 1.604 0 2.587 0.984 2.587 2.776v4.042h-1.483v-3.719c0-1.051-0.445-1.698-1.469-1.698-0.957 0-1.563 0.714-1.563 1.698v3.719h-1.482v-9.432z"></path>
<path d="M9.448 18.94c1.145 0 1.954-0.835 1.954-2.048h1.482c0 1.967-1.482 3.449-3.436 3.449-1.981 0-3.45-1.469-3.45-3.449s1.469-3.45 3.45-3.45c1.051 0 1.846 0.391 2.466 1.024l-1.091 0.984c-0.337-0.364-0.781-0.606-1.374-0.606-1.159 0-1.941 0.835-1.941 2.049s0.782 2.048 1.941 2.048z"></path>
<path d="M16.699 18.913c1.158 0 1.94-0.849 1.94-2.021s-0.782-2.021-1.94-2.021c-1.159 0-1.941 0.849-1.941 2.021s0.782 2.021 1.941 2.021zM16.699 13.442c1.994 0 3.45 1.483 3.45 3.45s-1.456 3.449-3.45 3.449c-1.995 0-3.45-1.482-3.45-3.449s1.455-3.45 3.45-3.45z"></path>
<path d="M20.962 13.523h1.482v0.768c0.364-0.499 1.010-0.849 1.752-0.849 0.822 0 1.401 0.337 1.765 0.93 0.512-0.539 1.065-0.93 2.035-0.93 1.375 0 2.21 0.741 2.21 2.398v4.42h-1.482v-4.043c0-0.876-0.405-1.374-1.2-1.374-0.687 0-1.199 0.499-1.199 1.374v4.043h-1.483v-4.043c0-0.876-0.418-1.374-1.199-1.374-0.687 0-1.199 0.499-1.199 1.374v4.043h-1.482v-6.737z"></path>
<path d="M32.581 16.084h3.584c-0.216-0.701-0.943-1.267-1.792-1.267s-1.576 0.565-1.792 1.267zM32.513 17.404c0.162 0.849 0.93 1.536 1.9 1.536 0.687 0 1.24-0.216 1.523-0.647h1.764c-0.458 1.226-1.764 2.048-3.288 2.048-1.954 0-3.463-1.536-3.463-3.449s1.508-3.45 3.422-3.45c1.914 0 3.422 1.537 3.422 3.45 0 0.175-0.013 0.35-0.040 0.512h-5.242z"></path>
<path d="M41.623 14.871c-1.172 0-1.954 0.862-1.954 2.021s0.781 2.021 1.954 2.021c1.172 0 1.94-0.862 1.94-2.021s-0.768-2.021-1.94-2.021zM43.536 20.261v-0.701c-0.431 0.418-1.091 0.781-1.981 0.781-2.008 0-3.341-1.348-3.341-3.45s1.334-3.449 3.341-3.449c0.835 0 1.563 0.323 1.981 0.781v-3.396l1.483-0.162v9.594h-1.483z"></path>
<path d="M46.94 13.523l1.671 3.921 1.671-3.921h1.536l-2.466 5.552v3.993l-1.483 0.724v-4.716l-2.466-5.552z"></path>
<path d="M10.015 23.727c0-1.24 0.876-1.752 1.819-1.752 0.606 0 1.105 0.189 1.455 0.62l-0.997 0.984c-0.067-0.108-0.189-0.202-0.391-0.202-0.243 0-0.404 0.175-0.404 0.445v0.93h2.156v1.401h-2.156v5.336h-1.482v-5.336h-1.361v-1.401h1.361v-1.024z"></path>
<path d="M15.212 27.312h3.584c-0.216-0.701-0.943-1.267-1.792-1.267s-1.576 0.565-1.792 1.267zM15.145 28.632c0.162 0.849 0.93 1.536 1.9 1.536 0.687 0 1.24-0.216 1.523-0.647h1.765c-0.458 1.226-1.764 2.048-3.288 2.048-1.954 0-3.463-1.536-3.463-3.449s1.508-3.45 3.422-3.45c1.914 0 3.422 1.537 3.422 3.45 0 0.175-0.013 0.35-0.040 0.512h-5.242z"></path>
<path d="M22.158 29.265c0 0.566 0.445 0.903 0.889 0.903 0.512 0 0.862-0.296 0.862-0.835 0-0.755-0.66-0.808-1.32-0.997-0.674-0.189-1.402-0.714-1.402-1.806 0-1.077 0.836-1.859 1.86-1.859 0.701 0 1.226 0.31 1.603 0.863l-0.916 0.902c-0.108-0.269-0.324-0.445-0.593-0.445-0.35 0-0.539 0.269-0.539 0.539 0 0.593 0.755 0.58 1.482 0.849 0.687 0.256 1.307 0.781 1.307 1.927 0 1.347-0.984 2.264-2.344 2.264-1.388 0-2.305-1.024-2.305-2.304h1.415z"></path>
<path d="M26.583 22.056l1.483-0.162v2.856h2.021v1.401h-2.021v5.336h-1.483v-5.336h-1.361v-1.401h1.361z"></path>
<path d="M30.631 31.489h1.482v-6.737h-1.482v6.737zM31.372 21.976c0.552 0 0.997 0.445 0.997 1.010 0 0.566-0.445 1.011-0.997 1.011s-0.997-0.445-0.997-1.011c0-0.565 0.445-1.010 0.997-1.010z"></path>
<path d="M34.069 24.751l1.617 4.636 1.617-4.636h1.59l-2.479 6.737h-1.456l-2.479-6.737z"></path>
<path d="M42.024 26.099c-1.118 0-1.981 0.916-1.981 2.021s0.862 2.021 1.981 2.021c1.091 0 1.927-0.916 1.927-2.021s-0.836-2.021-1.927-2.021zM45.406 24.752v6.737h-1.509v-0.701c-0.283 0.363-1.023 0.781-1.927 0.781-1.927 0-3.382-1.429-3.382-3.45s1.455-3.449 3.382-3.449c0.889 0 1.644 0.418 1.927 0.781v-0.701h1.509z"></path>
<path d="M46.656 22.618l1.482-0.723v9.594h-1.482z"></path>
</symbol>
</defs>
</svg>
