<?xml version="1.0" standalone="no"?>
<!DOCTYPE svg PUBLIC "-//W3C//DTD SVG 20010904//EN"
 "http://www.w3.org/TR/2001/REC-SVG-20010904/DTD/svg10.dtd">
<svg version="1.0" xmlns="http://www.w3.org/2000/svg"
 width="700.000000pt" height="700.000000pt" viewBox="0 0 700.000000 700.000000"
 preserveAspectRatio="xMidYMid meet">
<metadata>
Created by potrace 1.11, written by Peter Selinger 2001-2013
</metadata>
<g transform="translate(0.000000,700.000000) scale(0.100000,-0.100000)"
fill="#000000" stroke="none">
<path d="M3270 5909 c-658 -72 -1237 -380 -1639 -874 -102 -125 -245 -340
-267 -400 -4 -11 -12 -27 -19 -35 -22 -27 -122 -272 -153 -375 -78 -256 -105
-435 -106 -700 -1 -182 5 -290 19 -385 25 -157 65 -314 116 -460 126 -352 352
-698 619 -945 87 -80 111 -101 215 -178 214 -161 410 -264 675 -357 36 -13 81
-27 100 -32 133 -34 109 -29 220 -51 282 -57 617 -56 929 4 396 76 809 280
1116 549 66 58 217 212 260 265 22 27 48 59 59 70 10 11 58 81 108 154 263
396 402 854 402 1326 0 200 -12 322 -44 481 -51 251 -130 470 -248 687 -53 98
-171 281 -209 322 -10 11 -31 38 -47 59 -86 115 -320 334 -458 429 -40 28 -74
54 -76 59 -2 4 -8 8 -13 8 -5 0 -39 19 -76 43 -166 106 -509 246 -688 282 -61
12 -231 43 -270 49 -66 11 -444 14 -525 5z"/>
</g>
</svg>
