<?xml version="1.0" encoding="UTF-8"?>
<svg width="549px" height="71px" viewBox="0 0 549 71" version="1.1" xmlns="http://www.w3.org/2000/svg" xmlns:xlink="http://www.w3.org/1999/xlink">
    <!-- Generator: Sketch 52.6 (67491) - http://www.bohemiancoding.com/sketch -->
    <title>NO NAMES.</title>
    <desc>Created with Sketch.</desc>
    <g id="Page-1" stroke="none" stroke-width="1" fill="none" fill-rule="evenodd">
        <g id="Facebook" transform="translate(-326.000000, -280.000000)" fill="#000A12">
            <path d="M369.476,349 L341.924,302.536 L341.924,349 L326.948,349 L326.948,281.8 L345.476,281.8 L373.028,328.36 L373.028,281.8 L387.908,281.8 L387.908,349 L369.476,349 Z M432.548,350.152 C422.819951,350.152 414.612033,346.984032 407.924,340.648 C401.235967,334.311968 397.892,325.800053 397.892,315.112 C397.892,304.551947 401.299966,296.120032 408.116,289.816 C414.932034,283.511968 423.107952,280.36 432.644,280.36 C442.244048,280.36 450.435966,283.495969 457.22,289.768 C464.004034,296.040031 467.396,304.487947 467.396,315.112 C467.396,322.216036 465.764016,328.471973 462.5,333.88 C459.235984,339.288027 454.980026,343.351986 449.732,346.072 C444.483974,348.792014 438.756031,350.152 432.548,350.152 Z M419.204,330.856 C422.724018,334.82402 427.203973,336.808 432.644,336.808 C438.084027,336.808 442.531983,334.84002 445.988,330.904 C449.444017,326.96798 451.172,321.704033 451.172,315.112 C451.172,308.647968 449.428017,303.46402 445.94,299.56 C442.451983,295.65598 438.020027,293.704 432.644,293.704 C427.203973,293.704 422.740017,295.65598 419.252,299.56 C415.763983,303.46402 414.02,308.647968 414.02,315.112 C414.02,321.640033 415.747983,326.88798 419.204,330.856 Z M542.852,349 L515.3,302.536 L515.3,349 L500.324,349 L500.324,281.8 L518.852,281.8 L546.404,328.36 L546.404,281.8 L561.284,281.8 L561.284,349 L542.852,349 Z M621.764,349 L616.676,334.6 L589.22,334.6 L584.132,349 L568.388,349 L594.02,281.8 L612.644,281.8 L638.276,349 L621.764,349 Z M593.636,322.216 L612.26,322.216 L602.948,295.816 L593.636,322.216 Z M677.06,349 L660.068,294.184 L660.068,349 L645.284,349 L645.284,281.8 L669.86,281.8 L684.74,331.048 L699.62,281.8 L723.62,281.8 L723.62,349 L708.74,349 L708.74,294.472 L691.748,349 L677.06,349 Z M786.5,336.52 L786.5,349 L736.868,349 L736.868,281.8 L785.924,281.8 L785.924,294.28 L752.132,294.28 L752.132,308.392 L783.236,308.392 L783.236,320.584 L752.132,320.584 L752.132,336.52 L786.5,336.52 Z M822.596,350.152 C814.467959,350.152 807.764026,348.264019 802.484,344.488 C797.203974,340.711981 794.244003,335.144037 793.604,327.784 L808.868,327.784 C809.316002,331.240017 810.787988,333.863991 813.284,335.656 C815.780012,337.448009 818.915981,338.344 822.692,338.344 C826.148017,338.344 828.979989,337.656007 831.188,336.28 C833.396011,334.903993 834.5,332.968012 834.5,330.472 C834.5,328.359989 833.556009,326.680006 831.668,325.432 C829.779991,324.183994 826.88402,323.144004 822.98,322.312 L816.26,320.872 C802.24393,317.927985 795.236,311.368051 795.236,301.192 C795.236,295.17597 797.779975,290.20002 802.868,286.264 C807.956025,282.32798 814.147964,280.36 821.444,280.36 C828.932037,280.36 835.171975,282.215981 840.164,285.928 C845.156025,289.640019 847.971997,294.759967 848.612,301.288 L833.444,301.288 C832.995998,298.407986 831.700011,296.168008 829.556,294.568 C827.411989,292.967992 824.676017,292.168 821.348,292.168 C818.211984,292.168 815.60401,292.887993 813.524,294.328 C811.44399,295.768007 810.404,297.607989 810.404,299.848 C810.404,301.83201 811.155992,303.335995 812.66,304.36 C814.164008,305.384005 816.643983,306.247996 820.1,306.952 L827.588,308.584 C842.436074,311.528015 849.86,318.343947 849.86,329.032 C849.86,335.624033 847.220026,340.791981 841.94,344.536 C836.659974,348.280019 830.212038,350.152 822.596,350.152 Z M858.98,349 L858.98,333.352 L874.916,333.352 L874.916,349 L858.98,349 Z" id="NO-NAMES."></path>
        </g>
    </g>
</svg>