<?xml version="1.0" standalone="no"?>
<!DOCTYPE svg PUBLIC "-//W3C//DTD SVG 20010904//EN"
 "http://www.w3.org/TR/2001/REC-SVG-20010904/DTD/svg10.dtd">
<svg version="1.0" xmlns="http://www.w3.org/2000/svg"
 width="1200.000000pt" height="1200.000000pt" viewBox="0 0 1200.000000 1200.000000"
 preserveAspectRatio="xMidYMid meet">
<metadata>
Created by potrace 1.11, written by Peter Selinger 2001-2013
</metadata>
<g transform="translate(0.000000,1200.000000) scale(0.100000,-0.100000)"
fill="#000000" stroke="none">
<path d="M2310 5900 l0 -1260 280 0 280 0 2 867 3 868 514 -868 514 -867 343
0 344 0 0 1260 0 1260 -275 0 -275 0 -2 -872 -3 -872 -515 872 -515 872 -347
0 -348 0 0 -1260z"/>
<path d="M7390 5900 l0 -1260 280 0 280 0 2 867 3 868 514 -868 514 -867 343
0 344 0 0 1260 0 1260 -275 0 -275 0 -2 -872 -3 -872 -515 872 -515 872 -347
0 -348 0 0 -1260z"/>
<path d="M5200 5755 l0 -165 800 0 800 0 0 165 0 165 -800 0 -800 0 0 -165z"/>
</g>
</svg>
